<svg xmlns="http://www.w3.org/2000/svg" xmlns:xlink="http://www.w3.org/1999/xlink" width="602.931" height="446.333" viewBox="0 0 602.931 446.333"><defs><style>.a{fill:#fff;fill-rule:evenodd;}.b{filter:url(#a);}</style><filter id="a" x="0" y="0" width="602.931" height="446.333" filterUnits="userSpaceOnUse"><feOffset dy="40" input="SourceAlpha"/><feGaussianBlur stdDeviation="30" result="b"/><feFlood flood-opacity="0.149"/><feComposite operator="in" in2="b"/><feComposite in="SourceGraphic"/></filter></defs><g transform="translate(90 50)"><g class="b" transform="matrix(1, 0, 0, 1, -90, -50)"><path class="a" d="M11.431,0A11.431,11.431,0,0,0,0,11.431V262.516a3.811,3.811,0,0,0,7.293,1.556c1.09-2.471,2.114-4.857,3.1-7.153,9.657-22.5,15.583-36.308,43.332-36.308H411.5a11.43,11.43,0,0,0,11.431-11.431V11.431A11.43,11.43,0,0,0,411.5,0Z" transform="translate(90 50)"/></g></g></svg>